{
  "accessors": [
    {
      "bufferView": 2,
      "componentType": 5126,
      "count": 4905,
      "max": [
        2.49137806892395,
        2.1322500705718994,
        4.862569808959961
      ],
      "min": [
        -5.7030930519104,
        -5.995413780212402,
        1.6242879629135132
      ],
      "type": "VEC3"
    },
    {
      "bufferView": 2,
      "byteOffset": 58860,
      "componentType": 5126,
      "count": 4905,
      "max": [
        1.0,
        1.0,
        1.0
      ],
      "min": [
        -1.0,
        -1.0,
        -1.0
      ],
      "type": "VEC3"
    },
    {
      "bufferView": 1,
      "componentType": 5126,
      "count": 4905,
      "max": [
        1.0,
        1.0
      ],
      "min": [
        0.0,
        0.0
      ],
      "type": "VEC2"
    },
    {
      "bufferView": 0,
      "componentType": 5125,
      "count": 7479,
      "type": "SCALAR"
    },
    {
      "bufferView": 2,
      "byteOffset": 117720,
      "componentType": 5126,
      "count": 6519,
      "max": [
        2.490870952606201,
        2.174859046936035,
        4.870593070983887
      ],
      "min": [
        -5.7025861740112305,
        -5.998103141784668,
        1.6121230125427246
      ],
      "type": "VEC3"
    },
    {
      "bufferView": 2,
      "byteOffset": 195948,
      "componentType": 5126,
      "count": 6519,
      "max": [
        1.0,
        1.0,
        1.0
      ],
      "min": [
        -1.0,
        -1.0,
        -1.0
      ],
      "type": "VEC3"
    },
    {
      "bufferView": 1,
      "byteOffset": 39240,
      "componentType": 5126,
      "count": 6519,
      "max": [
        1.0,
        1.0
      ],
      "min": [
        0.0,
        -0.0
      ],
      "type": "VEC2"
    },
    {
      "bufferView": 0,
      "byteOffset": 29916,
      "componentType": 5125,
      "count": 14280,
      "type": "SCALAR"
    },
    {
      "bufferView": 2,
      "byteOffset": 274176,
      "componentType": 5126,
      "count": 6312,
      "max": [
        2.490870952606201,
        1.508025050163269,
        4.870593070983887
      ],
      "min": [
        -5.7025861740112305,
        -5.995757102966309,
        1.884855031967163
      ],
      "type": "VEC3"
    },
    {
      "bufferView": 2,
      "byteOffset": 349920,
      "componentType": 5126,
      "count": 6312,
      "max": [
        1.0,
        1.0,
        1.0
      ],
      "min": [
        -1.0,
        -1.0,
        -1.0
      ],
      "type": "VEC3"
    },
    {
      "bufferView": 1,
      "byteOffset": 91392,
      "componentType": 5126,
      "count": 6312,
      "max": [
        1.0,
        1.0
      ],
      "min": [
        0.0,
        -0.0
      ],
      "type": "VEC2"
    },
    {
      "bufferView": 0,
      "byteOffset": 87036,
      "componentType": 5125,
      "count": 14919,
      "type": "SCALAR"
    },
    {
      "bufferView": 2,
      "byteOffset": 425664,
      "componentType": 5126,
      "count": 3772,
      "max": [
        -0.4663279950618744,
        1.0486940145492554,
        3.9055380821228027
      ],
      "min": [
        -2.7625041007995605,
        -4.190697193145752,
        1.6264790296554565
      ],
      "type": "VEC3"
    },
    {
      "bufferView": 2,
      "byteOffset": 470928,
      "componentType": 5126,
      "count": 3772,
      "max": [
        1.0,
        1.0,
        1.0
      ],
      "min": [
        -1.0,
        -1.0,
        -1.0
      ],
      "type": "VEC3"
    },
    {
      "bufferView": 1,
      "byteOffset": 141888,
      "componentType": 5126,
      "count": 3772,
      "max": [
        0.9137309789657593,
        1.0
      ],
      "min": [
        0.0,
        -0.0
      ],
      "type": "VEC2"
    },
    {
      "bufferView": 0,
      "byteOffset": 146712,
      "componentType": 5125,
      "count": 13602,
      "type": "SCALAR"
    },
    {
      "bufferView": 2,
      "byteOffset": 516192,
      "componentType": 5126,
      "count": 3359,
      "max": [
        2.4143829345703125,
        2.1322500705718994,
        4.065782070159912
      ],
      "min": [
        -5.626098155975342,
        -5.987804889678955,
        1.6868089437484741
      ],
      "type": "VEC3"
    },
    {
      "bufferView": 2,
      "byteOffset": 556500,
      "componentType": 5126,
      "count": 3359,
      "max": [
        1.0,
        1.0,
        0.9999987483024597
      ],
      "min": [
        -1.0,
        -0.9909877777099609,
        -0.9999708533287048
      ],
      "type": "VEC3"
    },
    {
      "bufferView": 1,
      "byteOffset": 172064,
      "componentType": 5126,
      "count": 3359,
      "max": [
        1.0,
        1.0
      ],
      "min": [
        0.0,
        0.0
      ],
      "type": "VEC2"
    },
    {
      "bufferView": 0,
      "byteOffset": 201120,
      "componentType": 5125,
      "count": 10890,
      "type": "SCALAR"
    }
  ],
  "asset": {
    "extras": {
      "author": "bwedge87 (https://sketchfab.com/bwedge87)",
      "license": "CC-BY-4.0 (http://creativecommons.org/licenses/by/4.0/)",
      "source": "https://sketchfab.com/3d-models/simple-spaceship-72c54cdacfc3469498ee2a92c0325770",
      "title": "Simple Spaceship"
    },
    "generator": "Sketchfab-12.66.0",
    "version": "2.0"
  },
  "bufferViews": [
    {
      "buffer": 0,
      "byteLength": 244680,
      "name": "floatBufferViews",
      "target": 34963
    },
    {
      "buffer": 0,
      "byteLength": 198936,
      "byteOffset": 244680,
      "byteStride": 8,
      "name": "floatBufferViews",
      "target": 34962
    },
    {
      "buffer": 0,
      "byteLength": 596808,
      "byteOffset": 443616,
      "byteStride": 12,
      "name": "floatBufferViews",
      "target": 34962
    }
  ],
  "buffers": [
    {
      "byteLength": 1040424,
      "uri": "scene.bin"
    }
  ],
  "materials": [
    {
      "doubleSided": true,
      "name": "initialShadingGroup",
      "pbrMetallicRoughness": {
        "baseColorFactor": [
          0.4881239017687224,
          0.4881239017687224,
          0.4881239017687224,
          1.0
        ],
        "roughnessFactor": 0.6
      }
    }
  ],
  "meshes": [
    {
      "name": "Object_0",
      "primitives": [
        {
          "attributes": {
            "NORMAL": 1,
            "POSITION": 0,
            "TEXCOORD_0": 2
          },
          "indices": 3,
          "material": 0,
          "mode": 4
        }
      ]
    },
    {
      "name": "Object_1",
      "primitives": [
        {
          "attributes": {
            "NORMAL": 5,
            "POSITION": 4,
            "TEXCOORD_0": 6
          },
          "indices": 7,
          "material": 0,
          "mode": 4
        }
      ]
    },
    {
      "name": "Object_2",
      "primitives": [
        {
          "attributes": {
            "NORMAL": 9,
            "POSITION": 8,
            "TEXCOORD_0": 10
          },
          "indices": 11,
          "material": 0,
          "mode": 4
        }
      ]
    },
    {
      "name": "Object_3",
      "primitives": [
        {
          "attributes": {
            "NORMAL": 13,
            "POSITION": 12,
            "TEXCOORD_0": 14
          },
          "indices": 15,
          "material": 0,
          "mode": 4
        }
      ]
    },
    {
      "name": "Object_4",
      "primitives": [
        {
          "attributes": {
            "NORMAL": 17,
            "POSITION": 16,
            "TEXCOORD_0": 18
          },
          "indices": 19,
          "material": 0,
          "mode": 4
        }
      ]
    }
  ],
  "nodes": [
    {
      "children": [
        1
      ],
      "matrix": [
        1.0,
        0.0,
        0.0,
        0.0,
        0.0,
        2.220446049250313e-16,
        -1.0,
        0.0,
        0.0,
        1.0,
        2.220446049250313e-16,
        0.0,
        0.0,
        0.0,
        0.0,
        1.0
      ],
      "name": "Sketchfab_model"
    },
    {
      "children": [
        2,
        3,
        4,
        5,
        6
      ],
      "name": "wedge_OBJ.obj.cleaner.materialmerger.gles"
    },
    {
      "mesh": 0,
      "name": "Object_2"
    },
    {
      "mesh": 1,
      "name": "Object_3"
    },
    {
      "mesh": 2,
      "name": "Object_4"
    },
    {
      "mesh": 3,
      "name": "Object_5"
    },
    {
      "mesh": 4,
      "name": "Object_6"
    }
  ],
  "scene": 0,
  "scenes": [
    {
      "name": "Sketchfab_Scene",
      "nodes": [
        0
      ]
    }
  ]
}
